<svg width="145" height="38" viewBox="0 0 145 38" fill="none" xmlns="http://www.w3.org/2000/svg">
<circle cx="11.02" cy="14.15" r="10.15" fill="#FFDBAF"/>
<path d="M10.5367 33V7.86667" stroke="#E8622A" stroke-width="1.74" stroke-linecap="round"/>
<path d="M10.0755 20.4608C10.0755 20.4608 11.4225 13.8032 18.3268 11.7333C18.3268 11.7333 18.7818 19.1015 10.0755 20.4608Z" fill="#E8622A"/>
<path d="M11.3169 17.3184C11.3169 17.3184 10.0893 11.2509 3.79694 9.36447C3.79694 9.36447 3.38234 16.0796 11.3169 17.3184Z" fill="#E8622A"/>
<path d="M0.869995 33L21.17 33" stroke="#E8622A" stroke-width="1.74" stroke-linecap="round"/>
<path d="M29.474 9V2.655H30.131L32.579 7.461H32.471L34.91 2.655H35.558V9H34.991V3.447H35.081L32.75 8.01H32.3L29.951 3.438H30.041V9H29.474ZM37.4453 9V2.655H38.0483V9H37.4453ZM39.9326 9V2.655H42.0386C42.7106 2.655 43.2806 2.778 43.7486 3.024C44.2166 3.264 44.5706 3.621 44.8106 4.095C45.0566 4.563 45.1796 5.139 45.1796 5.823C45.1796 6.507 45.0566 7.086 44.8106 7.56C44.5706 8.028 44.2136 8.385 43.7396 8.631C43.2716 8.877 42.7046 9 42.0386 9H39.9326ZM40.5356 8.46H42.0026C42.8426 8.46 43.4756 8.244 43.9016 7.812C44.3336 7.374 44.5496 6.711 44.5496 5.823C44.5496 4.935 44.3336 4.275 43.9016 3.843C43.4756 3.411 42.8426 3.195 42.0026 3.195H40.5356V8.46ZM48.1864 9L46.1164 2.655H46.7464L48.5644 8.352H48.4384L50.4004 2.655H50.9134L52.8754 8.352H52.7584L54.5944 2.655H55.1974L53.1274 9H52.5424L50.6254 3.429H50.6974L48.7624 9H48.1864ZM56.5351 9V2.655H60.5401V3.186H57.1381V5.517H60.3601V6.048H57.1381V8.469H60.5401V9H56.5351ZM64.0537 9.072C63.7117 9.072 63.3877 9.045 63.0817 8.991C62.7817 8.937 62.5057 8.853 62.2537 8.739C62.0077 8.625 61.7887 8.484 61.5967 8.316L61.8397 7.821C62.0497 7.989 62.2657 8.127 62.4877 8.235C62.7157 8.337 62.9587 8.412 63.2167 8.46C63.4747 8.502 63.7537 8.523 64.0537 8.523C64.5937 8.523 65.0047 8.415 65.2867 8.199C65.5747 7.977 65.7187 7.68 65.7187 7.308C65.7187 7.104 65.6707 6.936 65.5747 6.804C65.4847 6.672 65.3407 6.561 65.1427 6.471C64.9447 6.381 64.6897 6.303 64.3777 6.237L63.3877 6.039C62.8117 5.925 62.3917 5.73 62.1277 5.454C61.8697 5.178 61.7407 4.821 61.7407 4.383C61.7407 4.023 61.8397 3.708 62.0377 3.438C62.2417 3.162 62.5207 2.952 62.8747 2.808C63.2287 2.658 63.6307 2.583 64.0807 2.583C64.3747 2.583 64.6477 2.613 64.8997 2.673C65.1577 2.727 65.3947 2.814 65.6107 2.934C65.8267 3.054 66.0217 3.198 66.1957 3.366L65.9437 3.87C65.6797 3.6 65.3947 3.411 65.0887 3.303C64.7887 3.189 64.4497 3.132 64.0717 3.132C63.7417 3.132 63.4447 3.183 63.1807 3.285C62.9227 3.381 62.7187 3.525 62.5687 3.717C62.4247 3.903 62.3527 4.128 62.3527 4.392C62.3527 4.686 62.4427 4.92 62.6227 5.094C62.8027 5.268 63.1087 5.4 63.5407 5.49L64.5307 5.679C65.1427 5.805 65.5927 5.997 65.8807 6.255C66.1747 6.513 66.3217 6.855 66.3217 7.281C66.3217 7.629 66.2287 7.938 66.0427 8.208C65.8567 8.478 65.5927 8.691 65.2507 8.847C64.9147 8.997 64.5157 9.072 64.0537 9.072ZM69.1753 9V3.195H66.8263V2.655H72.1183V3.195H69.7693V9H69.1753Z" fill="#E8622A"/>
<path d="M29.4646 23V13.6204H35.7975V15.2303H31.5268V17.5186H35.5048V19.1284H31.5268V23H29.4646ZM35.273 23L39.5836 13.6204H41.2467L45.5573 23H43.4818L42.3642 20.3923L43.1891 20.9644H37.6412L38.4661 20.3923L37.3618 23H35.273ZM40.3952 15.8157L38.6922 19.8735L38.333 19.3546H42.4973L42.1381 19.8735L40.4218 15.8157H40.3952ZM46.3945 23V13.6204H48.1108L51.5034 19.7937H51.051L54.4303 13.6204H56.12V23H54.2441V16.7736H54.5368L51.8227 21.5897H50.6652L47.9378 16.7603H48.2571V23H46.3945ZM58.0222 23V13.6204H60.0844V23H58.0222ZM61.9589 23V13.6204H64.0211V21.2571H68.3583V23H61.9589ZM70.2223 23V18.1838L70.648 19.3679L66.6035 13.6204H68.9983L71.4995 17.2392H71.0738L73.575 13.6204H75.8766L71.872 19.3679L72.2845 18.1838V23H70.2223ZM80.0965 23V13.6204H84.3938C85.3961 13.6204 86.1677 13.8377 86.7088 14.2723C87.2587 14.707 87.5336 15.3012 87.5336 16.0551C87.5336 16.6139 87.374 17.0884 87.0547 17.4787C86.7354 17.869 86.2963 18.1306 85.7376 18.2637V18.0508C86.1722 18.1217 86.5402 18.2592 86.8418 18.4632C87.1434 18.6672 87.374 18.9289 87.5336 19.2482C87.7022 19.5675 87.7864 19.9356 87.7864 20.3524C87.7864 20.9023 87.6534 21.3769 87.3873 21.776C87.1301 22.1751 86.7576 22.4811 86.2697 22.694C85.7908 22.898 85.2142 23 84.5402 23H80.0965ZM82.0655 21.47H84.2608C84.4736 21.47 84.6643 21.4523 84.8329 21.4168C85.0014 21.3813 85.1433 21.3325 85.2586 21.2704C85.3828 21.2083 85.4848 21.1285 85.5646 21.031C85.6444 20.9245 85.7021 20.8048 85.7376 20.6717C85.7819 20.5387 85.8041 20.3923 85.8041 20.2327C85.8041 20.0642 85.7819 19.9178 85.7376 19.7937C85.7021 19.6606 85.6444 19.5453 85.5646 19.4477C85.4848 19.3502 85.3828 19.2703 85.2586 19.2083C85.1433 19.1373 85.0014 19.0885 84.8329 19.0619C84.6643 19.0264 84.4736 19.0087 84.2608 19.0087H82.0655V21.47ZM82.0655 17.4787H84.0346C84.549 17.4787 84.9304 17.3811 85.1788 17.186C85.4271 16.9909 85.5513 16.6982 85.5513 16.3079C85.5513 15.9265 85.4271 15.6383 85.1788 15.4431C84.9304 15.248 84.549 15.1504 84.0346 15.1504H82.0655V17.4787ZM93.3651 23.1463C92.0347 23.1463 91.0191 22.8049 90.3184 22.1219C89.6266 21.439 89.2807 20.4234 89.2807 19.0752V13.6204H91.3428V19.0885C91.3428 19.8513 91.5158 20.4278 91.8617 20.8181C92.2076 21.1995 92.7088 21.3902 93.3651 21.3902C94.0214 21.3902 94.5181 21.1995 94.8552 20.8181C95.2011 20.4278 95.3741 19.8513 95.3741 19.0885V13.6204H97.4096V19.0752C97.4096 20.4234 97.0681 21.439 96.3852 22.1219C95.7022 22.8049 94.6955 23.1463 93.3651 23.1463ZM99.2345 23V13.6204H101.297V23H99.2345ZM103.171 23V13.6204H105.233V21.2571H109.571V23H103.171ZM110.798 23V13.6204H114.47C115.534 13.6204 116.439 13.8067 117.184 14.1792C117.938 14.5429 118.51 15.075 118.9 15.7757C119.299 16.4676 119.499 17.3102 119.499 18.3036C119.499 19.297 119.299 20.144 118.9 20.8447C118.51 21.5454 117.938 22.082 117.184 22.4545C116.439 22.8182 115.534 23 114.47 23H110.798ZM112.86 21.3103H114.35C115.352 21.3103 116.102 21.062 116.599 20.5653C117.095 20.0686 117.344 19.3147 117.344 18.3036C117.344 17.2924 117.091 16.543 116.585 16.0551C116.089 15.5584 115.344 15.3101 114.35 15.3101H112.86V21.3103ZM121.101 23V13.6204H123.163V23H121.101ZM125.038 23V13.6204H126.568L131.61 20.0464H131.251V13.6204H133.167V23H131.65L126.608 16.5607H126.953V23H125.038ZM139.698 23.1463C138.643 23.1463 137.747 22.9468 137.011 22.5477C136.283 22.1485 135.729 21.5897 135.348 20.8713C134.966 20.1529 134.776 19.3103 134.776 18.3435C134.776 17.3501 134.971 16.4897 135.361 15.7624C135.76 15.0351 136.332 14.4719 137.077 14.0728C137.831 13.6737 138.727 13.4741 139.765 13.4741C140.208 13.4741 140.634 13.5184 141.042 13.6071C141.45 13.687 141.827 13.8023 142.173 13.953C142.528 14.1038 142.829 14.2857 143.077 14.4985L142.412 16.1083C142.004 15.8068 141.587 15.5939 141.162 15.4697C140.736 15.3367 140.275 15.2702 139.778 15.2702C138.829 15.2702 138.115 15.5318 137.636 16.0551C137.166 16.5784 136.931 17.3412 136.931 18.3435C136.931 19.3457 137.17 20.1041 137.649 20.6185C138.137 21.133 138.856 21.3902 139.805 21.3902C140.124 21.3902 140.452 21.3591 140.789 21.297C141.126 21.235 141.459 21.1463 141.787 21.031L141.401 21.8691V19.3147H139.379V17.8246H143.104V22.4279C142.802 22.5787 142.461 22.7073 142.08 22.8137C141.707 22.9202 141.317 23 140.909 23.0532C140.501 23.1153 140.097 23.1463 139.698 23.1463Z" fill="#2C2C2A"/>
<path d="M29.375 35V28.655H32.066C32.762 28.655 33.296 28.817 33.668 29.141C34.046 29.459 34.235 29.915 34.235 30.509C34.235 30.863 34.163 31.166 34.019 31.418C33.875 31.67 33.671 31.871 33.407 32.021C33.149 32.165 32.84 32.255 32.48 32.291L32.516 32.246L32.66 32.264C32.834 32.282 32.987 32.345 33.119 32.453C33.257 32.561 33.386 32.726 33.506 32.948L34.604 35H33.533L32.471 33.02C32.387 32.864 32.297 32.744 32.201 32.66C32.105 32.576 31.991 32.519 31.859 32.489C31.733 32.453 31.58 32.435 31.4 32.435H30.347V35H29.375ZM30.347 31.652H31.958C32.408 31.652 32.738 31.562 32.948 31.382C33.164 31.196 33.272 30.917 33.272 30.545C33.272 30.179 33.161 29.909 32.939 29.735C32.723 29.555 32.387 29.465 31.931 29.465H30.347V31.652ZM35.7822 35V28.655H39.9852V29.474H36.7362V31.373H39.7962V32.192H36.7362V34.181H39.9852V35H35.7822ZM43.5235 35.081C43.1815 35.081 42.8545 35.054 42.5425 35C42.2305 34.952 41.9455 34.877 41.6875 34.775C41.4295 34.667 41.2015 34.535 41.0035 34.379L41.3365 33.596C41.5405 33.746 41.7565 33.869 41.9845 33.965C42.2125 34.055 42.4555 34.124 42.7135 34.172C42.9715 34.214 43.2415 34.235 43.5235 34.235C44.0035 34.235 44.3665 34.148 44.6125 33.974C44.8585 33.794 44.9815 33.551 44.9815 33.245C44.9815 33.077 44.9425 32.939 44.8645 32.831C44.7925 32.723 44.6695 32.633 44.4955 32.561C44.3275 32.489 44.1085 32.429 43.8385 32.381L42.8215 32.183C42.2395 32.063 41.8135 31.859 41.5435 31.571C41.2735 31.283 41.1385 30.911 41.1385 30.455C41.1385 30.071 41.2435 29.738 41.4535 29.456C41.6695 29.174 41.9635 28.958 42.3355 28.808C42.7075 28.652 43.1365 28.574 43.6225 28.574C43.9165 28.574 44.1955 28.601 44.4595 28.655C44.7295 28.709 44.9755 28.793 45.1975 28.907C45.4255 29.015 45.6235 29.147 45.7915 29.303L45.4585 30.077C45.2065 29.843 44.9275 29.675 44.6215 29.573C44.3155 29.471 43.9795 29.42 43.6135 29.42C43.3195 29.42 43.0585 29.462 42.8305 29.546C42.6025 29.624 42.4255 29.738 42.2995 29.888C42.1735 30.038 42.1105 30.224 42.1105 30.446C42.1105 30.686 42.1885 30.875 42.3445 31.013C42.5065 31.151 42.7765 31.259 43.1545 31.337L44.1625 31.535C44.7745 31.649 45.2275 31.844 45.5215 32.12C45.8155 32.39 45.9625 32.747 45.9625 33.191C45.9625 33.563 45.8605 33.893 45.6565 34.181C45.4585 34.463 45.1765 34.685 44.8105 34.847C44.4505 35.003 44.0215 35.081 43.5235 35.081ZM50.0062 35.081C49.5502 35.081 49.1362 35.006 48.7642 34.856C48.3982 34.706 48.0832 34.49 47.8192 34.208C47.5552 33.92 47.3512 33.578 47.2072 33.182C47.0692 32.78 47.0002 32.327 47.0002 31.823C47.0002 31.319 47.0692 30.869 47.2072 30.473C47.3512 30.071 47.5522 29.729 47.8102 29.447C48.0742 29.165 48.3922 28.949 48.7642 28.799C49.1362 28.649 49.5502 28.574 50.0062 28.574C50.4682 28.574 50.8822 28.649 51.2482 28.799C51.6202 28.949 51.9382 29.165 52.2022 29.447C52.4662 29.723 52.6672 30.062 52.8052 30.464C52.9432 30.866 53.0122 31.316 53.0122 31.814C53.0122 32.318 52.9432 32.771 52.8052 33.173C52.6672 33.575 52.4662 33.92 52.2022 34.208C51.9382 34.49 51.6202 34.706 51.2482 34.856C50.8822 35.006 50.4682 35.081 50.0062 35.081ZM50.0062 34.226C50.4322 34.226 50.7922 34.133 51.0862 33.947C51.3802 33.761 51.6052 33.488 51.7612 33.128C51.9232 32.768 52.0042 32.333 52.0042 31.823C52.0042 31.307 51.9262 30.872 51.7702 30.518C51.6142 30.158 51.3862 29.888 51.0862 29.708C50.7922 29.522 50.4322 29.429 50.0062 29.429C49.5922 29.429 49.2352 29.522 48.9352 29.708C48.6352 29.888 48.4072 30.158 48.2512 30.518C48.0952 30.872 48.0172 31.307 48.0172 31.823C48.0172 32.333 48.0952 32.768 48.2512 33.128C48.4072 33.488 48.6352 33.761 48.9352 33.947C49.2352 34.133 49.5922 34.226 50.0062 34.226ZM57.0324 35.081C56.1804 35.081 55.5294 34.862 55.0794 34.424C54.6354 33.986 54.4134 33.341 54.4134 32.489V28.655H55.3944V32.462C55.3944 33.056 55.5324 33.494 55.8084 33.776C56.0904 34.058 56.4984 34.199 57.0324 34.199C57.5664 34.199 57.9714 34.058 58.2474 33.776C58.5234 33.494 58.6614 33.056 58.6614 32.462V28.655H59.6334V32.489C59.6334 33.341 59.4114 33.986 58.9674 34.424C58.5234 34.862 57.8784 35.081 57.0324 35.081ZM61.2705 35V28.655H63.9615C64.6575 28.655 65.1915 28.817 65.5635 29.141C65.9415 29.459 66.1305 29.915 66.1305 30.509C66.1305 30.863 66.0585 31.166 65.9145 31.418C65.7705 31.67 65.5665 31.871 65.3025 32.021C65.0445 32.165 64.7355 32.255 64.3755 32.291L64.4115 32.246L64.5555 32.264C64.7295 32.282 64.8825 32.345 65.0145 32.453C65.1525 32.561 65.2815 32.726 65.4015 32.948L66.4995 35H65.4285L64.3665 33.02C64.2825 32.864 64.1925 32.744 64.0965 32.66C64.0005 32.576 63.8865 32.519 63.7545 32.489C63.6285 32.453 63.4755 32.435 63.2955 32.435H62.2425V35H61.2705ZM62.2425 31.652H63.8535C64.3035 31.652 64.6335 31.562 64.8435 31.382C65.0595 31.196 65.1675 30.917 65.1675 30.545C65.1675 30.179 65.0565 29.909 64.8345 29.735C64.6185 29.555 64.2825 29.465 63.8265 29.465H62.2425V31.652ZM70.4418 35.09C69.8178 35.09 69.2778 34.958 68.8218 34.694C68.3658 34.43 68.0118 34.055 67.7598 33.569C67.5138 33.077 67.3908 32.495 67.3908 31.823C67.3908 31.151 67.5138 30.572 67.7598 30.086C68.0118 29.6 68.3628 29.228 68.8128 28.97C69.2688 28.706 69.8118 28.574 70.4418 28.574C70.8798 28.574 71.2848 28.64 71.6568 28.772C72.0288 28.898 72.3408 29.087 72.5928 29.339L72.2508 30.104C71.9748 29.87 71.6928 29.702 71.4048 29.6C71.1228 29.492 70.8108 29.438 70.4688 29.438C69.8208 29.438 69.3138 29.642 68.9478 30.05C68.5878 30.458 68.4078 31.049 68.4078 31.823C68.4078 32.597 68.5878 33.191 68.9478 33.605C69.3138 34.013 69.8208 34.217 70.4688 34.217C70.8108 34.217 71.1228 34.166 71.4048 34.064C71.6928 33.956 71.9748 33.785 72.2508 33.551L72.5928 34.316C72.3408 34.568 72.0288 34.76 71.6568 34.892C71.2848 35.024 70.8798 35.09 70.4418 35.09ZM73.9268 35V28.655H78.1298V29.474H74.8808V31.373H77.9408V32.192H74.8808V34.181H78.1298V35H73.9268Z" fill="#888780"/>
</svg>
