<svg width="45" height="36" viewBox="0 0 45 36" fill="none" xmlns="http://www.w3.org/2000/svg">
<path d="M12.7847 34.0123C19.1794 34.0123 24.3634 28.8284 24.3634 22.4336C24.3634 16.0389 19.1794 10.855 12.7847 10.855C6.39 10.855 1.20605 16.0389 1.20605 22.4336C1.20605 28.8284 6.39 34.0123 12.7847 34.0123Z" stroke="#E8622A" stroke-width="2.41222" stroke-linecap="round" stroke-linejoin="round"/>
<path d="M32.0826 34.0123C38.4773 34.0123 43.6612 28.8284 43.6612 22.4336C43.6612 16.0389 38.4773 10.855 32.0826 10.855C25.6878 10.855 20.5039 16.0389 20.5039 22.4336C20.5039 28.8284 25.6878 34.0123 32.0826 34.0123Z" stroke="#E8622A" stroke-width="2.41222" stroke-linecap="round" stroke-linejoin="round"/>
<path d="M22.4334 24.3634C28.8281 24.3634 34.0121 19.1794 34.0121 12.7847C34.0121 6.39 28.8281 1.20605 22.4334 1.20605C16.0387 1.20605 10.8547 6.39 10.8547 12.7847C10.8547 19.1794 16.0387 24.3634 22.4334 24.3634Z" stroke="#E8622A" stroke-width="2.41222" stroke-linecap="round" stroke-linejoin="round"/>
</svg>
